<svg width="10" height="7" viewBox="0 0 10 7" fill="none" xmlns="http://www.w3.org/2000/svg">
<g filter="url(#filter0_b_45_527)">
<path d="M5 6.35693C5.07334 6.35679 5.1459 6.34192 5.21339 6.3132C5.28087 6.28449 5.34191 6.24252 5.39287 6.18978L9.83733 1.61818C9.9417 1.5096 10 1.36484 10 1.21423C10 1.06363 9.9417 0.918865 9.83733 0.810288C9.78648 0.757399 9.72547 0.715322 9.65796 0.68658C9.59045 0.657838 9.51783 0.643023 9.44446 0.643023C9.37109 0.643023 9.29847 0.657838 9.23096 0.68658C9.16345 0.715322 9.10244 0.757399 9.05159 0.810288L5 4.97759L0.948413 0.810289C0.897558 0.757399 0.836548 0.715322 0.769039 0.68658C0.70153 0.657838 0.628913 0.643023 0.555541 0.643023C0.482168 0.643023 0.40955 0.657838 0.342042 0.68658C0.274533 0.715322 0.213523 0.757399 0.162668 0.810289C0.058295 0.918865 -2.31378e-07 1.06363 -2.24795e-07 1.21423C-2.18211e-07 1.36484 0.058295 1.5096 0.162668 1.61818L4.60713 6.18978C4.65809 6.24252 4.71913 6.28449 4.78661 6.3132C4.8541 6.34192 4.92666 6.35679 5 6.35693Z" fill="#3A3A3A"/>
</g>
<defs>
<filter id="filter0_b_45_527" x="-10.3723" y="-9.72934" width="30.7447" height="26.4586" filterUnits="userSpaceOnUse" color-interpolation-filters="sRGB">
<feFlood flood-opacity="0" result="BackgroundImageFix"/>
<feGaussianBlur in="BackgroundImageFix" stdDeviation="5.18617"/>
<feComposite in2="SourceAlpha" operator="in" result="effect1_backgroundBlur_45_527"/>
<feBlend mode="normal" in="SourceGraphic" in2="effect1_backgroundBlur_45_527" result="shape"/>
</filter>
</defs>
</svg>
